<svg xmlns="http://www.w3.org/2000/svg" width="48px" height="48px" viewBox="0 0 67.733 67.733">
    <defs>
        <linearGradient id="A" x1="21.163" y1="30.559" x2="40.948" y2="43.789"
            gradientUnits="userSpaceOnUse">
            <stop offset=".191" stop-color="#0ecdff" />
            <stop offset="1" stop-color="#3246cc" />
        </linearGradient>
        <filter id="B" x="-.401" y="-.401" width="1.802" height="1.802"
            color-interpolation-filters="sRGB">
            <feGaussianBlur stdDeviation="4.484" />
        </filter>
        <path id="C"
            d="M44.376 20.451l-1.146 1.146-1.523 1.523-7.697 7.697-.255-.141 2.059-8.903-.405-.591-1.013-.084-1.058-.001c-6.638.27-11.971 5.603-12.241 12.241v1.058a12.78 12.78 0 0 0 2.102 6.497l-.074.81-2.674 2.674v.748l2.158 2.158h.748l1.108-1.108 1.566-1.566 6.794-6.794.291.148-1.275 7.981.44.601a12.78 12.78 0 0 0 1.057.091l1.058.002c6.638-.27 11.971-5.603 12.241-12.241v-1.058a12.78 12.78 0 0 0-2.097-6.501l.074-.81 2.669-2.669v-.748l-2.158-2.158z" />
    </defs>
    <path
        d="M61.824 50.008C59.887 53.363 37.741 66.15 33.867 66.15S7.846 53.363 5.909 50.008s-1.937-28.928 0-32.283S29.993 1.584 33.867 1.584 59.887 14.37 61.824 17.725s1.937 28.928 0 32.283z" />
    <use href="#C" fill="url(#A)" />
    <use href="#C" opacity=".682" fill="url(#A)" filter="url(#B)" />
    <path
        d="M27.83 19.294c-.357-.161.686-2.848.548-3.214s-2.697-1.692-2.536-2.048 2.848.686 3.214.548 1.692-2.697 2.048-2.536-.686 2.848-.548 3.214 2.697 1.692 2.536 2.048-2.848-.686-3.214-.548-1.692 2.697-2.048 2.536z"
        fill="#fff" />
</svg>
